<svg width="512" height="512" xmlns="http://www.w3.org/2000/svg">

 <g>
  <title>background</title>
  <rect fill="none" id="canvas_background" height="402" width="582" y="-1" x="-1"/>
 </g>
 <g>
  <title>Layer 1</title>
  <path fill="#ffffff" id="svg_2" d="m436.76,247l-162.219,0c-4.543,0 -8.828,1.112 -12.609,3.068c1.956,-3.781 3.068,-8.066 3.068,-12.609l0,-162.217c0,-15.187 -12.354,-27.541 -27.541,-27.541l-162.217,0c-15.187,0 -27.541,12.354 -27.541,27.541l0,162.217c0,7.135 2.728,13.644 7.194,18.541c-4.467,4.897 -7.194,11.406 -7.194,18.541l0,162.217c0,15.187 12.354,27.541 27.541,27.541l162.217,0c7.135,0 13.644,-2.728 18.541,-7.194c4.897,4.467 11.406,7.194 18.541,7.194l162.219,0c15.186,0 27.539,-12.354 27.539,-27.541l0,-162.217c0,-15.187 -12.354,-27.541 -27.539,-27.541zm-241.88,199.299l-36.339,0l88.459,-88.457l0,36.289l-51.653,51.651c-0.166,0.166 -0.317,0.341 -0.467,0.517zm-109.997,0l162.117,-162.117l0,48.203l-113.916,113.914l-48.201,0zm-9.641,-181.299l34.953,0l-44.494,44.494l0,-34.953c0,-5.261 4.28,-9.541 9.541,-9.541zm-9.541,69.203c0.904,-0.43 1.756,-1.008 2.505,-1.757l67.446,-67.446l41.545,0l-111.496,111.496l0,-42.293zm0,102.555l0,-34.805l136.953,-136.953l34.805,0c0.987,0 1.939,0.15 2.836,0.43l-174.164,174.164c-0.279,-0.897 -0.43,-1.85 -0.43,-2.836zm0,-361.516c0,-5.261 4.28,-9.541 9.541,-9.541l162.217,0c5.261,0 9.541,4.28 9.541,9.541l0,162.217c0,5.261 -4.28,9.541 -9.541,9.541l-162.217,0c-5.261,0 -9.541,-4.28 -9.541,-9.541l0,-162.217zm171.758,371.057l-17.172,0l26.713,-26.711l0,17.17c0,5.261 -4.28,9.541 -9.541,9.541zm208.84,-9.541c0,5.261 -4.279,9.541 -9.539,9.541l-162.219,0c-5.261,0 -9.541,-4.28 -9.541,-9.541l0,-162.217c0,-5.261 4.28,-9.541 9.541,-9.541l162.219,0c5.26,0 9.539,4.28 9.539,9.541l0,162.217z"/>
 </g>
</svg>